<?xml version="1.0" encoding="utf-8"?>
<!-- Generator: Adobe Illustrator 24.1.2, SVG Export Plug-In . SVG Version: 6.00 Build 0)  -->
<svg version="1.1" xmlns="http://www.w3.org/2000/svg" xmlns:xlink="http://www.w3.org/1999/xlink" x="0px" y="0px"
	 viewBox="0 0 382.22 391.72" style="enable-background:new 0 0 382.22 391.72;" xml:space="preserve">
<style type="text/css">
	.st0{display:none;}
	.st1{display:inline;}
	.st2{fill:none;stroke:#000000;stroke-width:10;stroke-miterlimit:10;}
	.st3{fill:none;stroke:#878787;stroke-width:5;stroke-miterlimit:10;}
	.st4{fill:none;stroke:#000000;stroke-width:5;stroke-miterlimit:10;}
	.st5{display:inline;fill:none;stroke:#000000;stroke-width:10;stroke-miterlimit:10;}
	.st6{display:inline;fill:none;stroke:#000000;stroke-width:5;stroke-miterlimit:10;}
	.st7{display:inline;fill:none;stroke:#878787;stroke-width:5;stroke-miterlimit:10;}
	.st8{fill:#FFFFFF;}
	.st9{fill:none;stroke:#FFFFFF;stroke-width:10;stroke-miterlimit:10;}
	.st10{fill:none;stroke:#FFFFFF;stroke-width:5;stroke-miterlimit:10;}
	.st11{fill:none;stroke:#FFFFFF;stroke-miterlimit:10;}
	.st12{display:inline;opacity:0.2;fill:#FFFFFF;stroke:#FFFFFF;stroke-width:10;stroke-miterlimit:10;}
	.st13{fill:#346767;}
	.st14{fill:none;stroke:#346767;stroke-width:20;stroke-miterlimit:10;}
	.st15{fill:none;stroke:#346767;stroke-width:10;stroke-miterlimit:10;}
	.st16{fill:none;stroke:#346767;stroke-miterlimit:10;}
	.st17{fill:none;stroke:#C6C6C6;stroke-width:10;stroke-miterlimit:10;}
</style>
<g id="Layer_2" class="st0">
	<g id="XMLID_1_" class="st1">
		<g>
			<path d="M329.04,172.99V150.4v-0.27l-21.41-21.41l-1.44-1.45l-13.48-6.58l-21.84-10.67l-18.37-8.97l-7.74-3.78l-55.19,34V17.34
				c98.62,0,178.57,79.95,178.57,178.57c0,98.63-79.95,178.57-178.57,178.57V261.46L329.04,172.99z"/>
			<polygon points="329.04,150.4 329.04,172.99 189.57,261.46 189.57,236.88 189.76,236.88 			"/>
			<polygon points="306.19,127.27 307.63,128.72 306.19,130.16 189.76,202.45 189.57,202.45 189.57,184.61 189.76,184.61 
				292.7,120.7 292.71,120.69 			"/>
			<polygon points="270.87,110.02 270.65,110.47 189.57,160.81 189.57,140.13 252.5,101.05 			"/>
		</g>
		<g>
			<circle class="st2" cx="189.57" cy="195.91" r="178.57"/>
			<polygon class="st3" points="189.57,131.27 66.19,207.27 50.47,230.5 64.76,260.13 93.33,264.42 137.61,294.42 189.57,261.46 
				329.04,172.99 329.04,150.4 329.04,150.13 307.63,128.72 306.19,127.27 292.71,120.69 270.87,110.02 252.5,101.05 244.76,97.27 
							"/>
			<polyline class="st4" points="189.57,17.34 189.57,131.27 189.57,140.13 189.57,160.81 189.57,173.64 189.57,184.61 
				189.57,202.45 189.57,236.88 189.57,261.46 189.57,374.48 			"/>
		</g>
	</g>
</g>
<g id="Layer_1" class="st0">
	<circle class="st5" cx="191.56" cy="195.92" r="178.57"/>
	<polyline class="st6" points="189.56,17.35 189.56,173.64 189.56,374.49 	"/>
	<line class="st1" x1="189.23" y1="140.34" x2="252.5" y2="101.06"/>
	<line class="st1" x1="189.23" y1="161.03" x2="270.64" y2="110.48"/>
	<line class="st1" x1="189.75" y1="184.62" x2="292.7" y2="120.7"/>
	<line class="st1" x1="189.75" y1="202.46" x2="306.18" y2="130.17"/>
	<line class="st1" x1="189.75" y1="236.89" x2="329.04" y2="150.41"/>
	<polygon class="st7" points="137.61,294.42 329.04,172.99 329.04,150.13 306.18,127.28 244.75,97.28 66.18,207.28 50.47,230.51 
		64.75,260.13 93.32,264.42 	"/>
</g>
<g id="Colour" class="st0">
	<g id="XMLID_2_" class="st1">
		<g>
			<polygon points="270.86,110.03 270.64,110.48 189.57,160.82 189.57,140.13 252.5,101.06 			"/>
			<polygon points="306.18,127.28 307.63,128.73 306.18,130.17 189.75,202.46 189.57,202.46 189.57,184.62 189.75,184.62 
				292.7,120.7 			"/>
			<polygon points="329.04,150.41 329.04,172.99 189.57,261.46 189.57,236.89 189.75,236.89 			"/>
			<path d="M329.04,172.99v-22.58v-0.27l-21.41-21.41l-1.45-1.45l-13.48-6.58l-21.84-10.67l-18.36-8.97l-7.75-3.78l-55.18,33.99
				V17.36c0.67-0.01,1.33-0.01,2-0.01c98.62,0,178.57,79.95,178.57,178.57s-79.95,178.57-178.57,178.57c-0.67,0-1.33,0-2-0.01
				V261.46L329.04,172.99z"/>
		</g>
		<g>
			<path class="st2" d="M189.57,17.36c0.67-0.01,1.33-0.01,2-0.01c98.62,0,178.57,79.95,178.57,178.57s-79.95,178.57-178.57,178.57
				c-0.67,0-1.33,0-2-0.01c-97.71-1.07-176.58-80.61-176.58-178.56S91.86,18.43,189.57,17.36z"/>
			<polyline class="st4" points="189.57,17.35 189.57,17.36 189.57,131.27 189.57,140.13 189.57,160.82 189.57,173.65 
				189.57,184.62 189.57,202.46 189.57,236.89 189.57,261.46 189.57,374.48 189.57,374.49 			"/>
			<polygon class="st3" points="189.57,131.27 66.18,207.28 50.47,230.51 64.75,260.14 93.33,264.42 137.61,294.42 189.57,261.46 
				329.04,172.99 329.04,150.41 329.04,150.14 307.63,128.73 306.18,127.28 292.7,120.7 270.86,110.03 252.5,101.06 244.75,97.28 
							"/>
		</g>
	</g>
</g>
<g id="white_copy" class="st0">
	<g id="XMLID_19_" class="st1">
		<g>
			<polygon class="st8" points="270.86,110.03 270.64,110.48 189.57,160.82 189.57,140.13 252.5,101.06 			"/>
			<polygon class="st8" points="307.63,128.73 306.18,130.17 189.75,202.46 189.57,202.46 189.57,184.62 189.75,184.62 292.7,120.7 
				306.18,127.28 			"/>
			<polygon class="st8" points="329.04,150.41 329.04,172.99 189.57,261.46 189.57,236.89 189.75,236.89 			"/>
			<path class="st8" d="M329.04,172.99v-22.58v-0.27l-21.41-21.41l-1.45-1.45l-13.48-6.58l-21.84-10.67l-18.36-8.97l-7.75-3.78
				l-55.18,33.99V17.36c0.67-0.01,1.33-0.01,2-0.01c98.62,0,178.57,79.95,178.57,178.57s-79.95,178.57-178.57,178.57
				c-0.67,0-1.33,0-2-0.01V261.46L329.04,172.99z"/>
		</g>
		<g>
			<path class="st9" d="M189.57,17.36c0.67-0.01,1.33-0.01,2-0.01c98.62,0,178.57,79.95,178.57,178.57s-79.95,178.57-178.57,178.57
				c-0.67,0-1.33,0-2-0.01c-97.71-1.07-176.58-80.61-176.58-178.56S91.86,18.43,189.57,17.36z"/>
			<polyline class="st10" points="189.57,17.35 189.57,17.36 189.57,131.27 189.57,140.13 189.57,160.82 189.57,173.65 
				189.57,184.62 189.57,202.46 189.57,236.89 189.57,261.46 189.57,374.48 189.57,374.49 			"/>
			<polyline class="st11" points="189.23,161.03 189.57,160.82 270.64,110.48 			"/>
			<line class="st11" x1="189.75" y1="184.62" x2="292.7" y2="120.7"/>
			<line class="st11" x1="189.75" y1="202.46" x2="306.18" y2="130.17"/>
			<line class="st11" x1="189.75" y1="236.89" x2="329.04" y2="150.41"/>
			<polygon class="st3" points="189.57,131.27 66.18,207.28 50.47,230.51 64.75,260.14 93.33,264.42 137.61,294.42 189.57,261.46 
				329.04,172.99 329.04,150.41 329.04,150.14 307.63,128.73 306.18,127.28 292.7,120.7 270.86,110.03 252.5,101.06 244.75,97.28 
							"/>
		</g>
	</g>
	<g id="XMLID_18_" class="st1">
		<g>
			<polygon class="st8" points="270.86,110.03 270.64,110.48 189.57,160.82 189.57,140.13 252.5,101.06 			"/>
			<polygon class="st8" points="307.63,128.73 306.18,130.17 189.75,202.46 189.57,202.46 189.57,184.62 189.75,184.62 292.7,120.7 
				306.18,127.28 			"/>
			<polygon class="st8" points="329.04,150.41 329.04,172.99 189.57,261.46 189.57,236.89 189.75,236.89 			"/>
			<path class="st8" d="M329.04,172.99v-22.58v-0.27l-21.41-21.41l-1.45-1.45l-13.48-6.58l-21.84-10.67l-18.36-8.97l-7.75-3.78
				l-55.18,33.99V17.36c0.67-0.01,1.33-0.01,2-0.01c98.62,0,178.57,79.95,178.57,178.57s-79.95,178.57-178.57,178.57
				c-0.67,0-1.33,0-2-0.01V261.46L329.04,172.99z"/>
		</g>
		<g>
			<path class="st9" d="M189.57,17.36c0.67-0.01,1.33-0.01,2-0.01c98.62,0,178.57,79.95,178.57,178.57s-79.95,178.57-178.57,178.57
				c-0.67,0-1.33,0-2-0.01c-97.71-1.07-176.58-80.61-176.58-178.56S91.86,18.43,189.57,17.36z"/>
			<polyline class="st10" points="189.57,17.35 189.57,17.36 189.57,131.27 189.57,140.13 189.57,160.82 189.57,173.65 
				189.57,184.62 189.57,202.46 189.57,236.89 189.57,261.46 189.57,374.48 189.57,374.49 			"/>
			<polyline class="st11" points="189.23,161.03 189.57,160.82 270.64,110.48 			"/>
			<line class="st11" x1="189.75" y1="184.62" x2="292.7" y2="120.7"/>
			<line class="st11" x1="189.75" y1="202.46" x2="306.18" y2="130.17"/>
			<line class="st11" x1="189.75" y1="236.89" x2="329.04" y2="150.41"/>
			<polygon class="st3" points="189.57,131.27 66.18,207.28 50.47,230.51 64.75,260.14 93.33,264.42 137.61,294.42 189.57,261.46 
				329.04,172.99 329.04,150.41 329.04,150.14 307.63,128.73 306.18,127.28 292.7,120.7 270.86,110.03 252.5,101.06 244.75,97.28 
							"/>
		</g>
	</g>
	<g id="XMLID_17_" class="st1">
		<g>
			<polygon class="st8" points="270.86,110.03 270.64,110.48 189.57,160.82 189.57,140.13 252.5,101.06 			"/>
			<polygon class="st8" points="307.63,128.73 306.18,130.17 189.75,202.46 189.57,202.46 189.57,184.62 189.75,184.62 292.7,120.7 
				306.18,127.28 			"/>
			<polygon class="st8" points="329.04,150.41 329.04,172.99 189.57,261.46 189.57,236.89 189.75,236.89 			"/>
			<path class="st8" d="M329.04,172.99v-22.58v-0.27l-21.41-21.41l-1.45-1.45l-13.48-6.58l-21.84-10.67l-18.36-8.97l-7.75-3.78
				l-55.18,33.99V17.36c0.67-0.01,1.33-0.01,2-0.01c98.62,0,178.57,79.95,178.57,178.57s-79.95,178.57-178.57,178.57
				c-0.67,0-1.33,0-2-0.01V261.46L329.04,172.99z"/>
		</g>
		<g>
			<path class="st9" d="M189.57,17.36c0.67-0.01,1.33-0.01,2-0.01c98.62,0,178.57,79.95,178.57,178.57s-79.95,178.57-178.57,178.57
				c-0.67,0-1.33,0-2-0.01c-97.71-1.07-176.58-80.61-176.58-178.56S91.86,18.43,189.57,17.36z"/>
			<polyline class="st10" points="189.57,17.35 189.57,17.36 189.57,131.27 189.57,140.13 189.57,160.82 189.57,173.65 
				189.57,184.62 189.57,202.46 189.57,236.89 189.57,261.46 189.57,374.48 189.57,374.49 			"/>
			<polyline class="st11" points="189.23,161.03 189.57,160.82 270.64,110.48 			"/>
			<line class="st11" x1="189.75" y1="184.62" x2="292.7" y2="120.7"/>
			<line class="st11" x1="189.75" y1="202.46" x2="306.18" y2="130.17"/>
			<line class="st11" x1="189.75" y1="236.89" x2="329.04" y2="150.41"/>
			<polygon class="st3" points="189.57,131.27 66.18,207.28 50.47,230.51 64.75,260.14 93.33,264.42 137.61,294.42 189.57,261.46 
				329.04,172.99 329.04,150.41 329.04,150.14 307.63,128.73 306.18,127.28 292.7,120.7 270.86,110.03 252.5,101.06 244.75,97.28 
							"/>
		</g>
	</g>
	<g id="XMLID_16_" class="st1">
		<g>
			<polygon class="st8" points="270.86,110.03 270.64,110.48 189.57,160.82 189.57,140.13 252.5,101.06 			"/>
			<polygon class="st8" points="307.63,128.73 306.18,130.17 189.75,202.46 189.57,202.46 189.57,184.62 189.75,184.62 292.7,120.7 
				306.18,127.28 			"/>
			<polygon class="st8" points="329.04,150.41 329.04,172.99 189.57,261.46 189.57,236.89 189.75,236.89 			"/>
			<path class="st8" d="M329.04,172.99v-22.58v-0.27l-21.41-21.41l-1.45-1.45l-13.48-6.58l-21.84-10.67l-18.36-8.97l-7.75-3.78
				l-55.18,33.99V17.36c0.67-0.01,1.33-0.01,2-0.01c98.62,0,178.57,79.95,178.57,178.57s-79.95,178.57-178.57,178.57
				c-0.67,0-1.33,0-2-0.01V261.46L329.04,172.99z"/>
		</g>
		<g>
			<path class="st9" d="M189.57,17.36c0.67-0.01,1.33-0.01,2-0.01c98.62,0,178.57,79.95,178.57,178.57s-79.95,178.57-178.57,178.57
				c-0.67,0-1.33,0-2-0.01c-97.71-1.07-176.58-80.61-176.58-178.56S91.86,18.43,189.57,17.36z"/>
			<polyline class="st10" points="189.57,17.35 189.57,17.36 189.57,131.27 189.57,140.13 189.57,160.82 189.57,173.65 
				189.57,184.62 189.57,202.46 189.57,236.89 189.57,261.46 189.57,374.48 189.57,374.49 			"/>
			<polyline class="st11" points="189.23,161.03 189.57,160.82 270.64,110.48 			"/>
			<line class="st11" x1="189.75" y1="184.62" x2="292.7" y2="120.7"/>
			<line class="st11" x1="189.75" y1="202.46" x2="306.18" y2="130.17"/>
			<line class="st11" x1="189.75" y1="236.89" x2="329.04" y2="150.41"/>
			<polygon class="st3" points="189.57,131.27 66.18,207.28 50.47,230.51 64.75,260.14 93.33,264.42 137.61,294.42 189.57,261.46 
				329.04,172.99 329.04,150.41 329.04,150.14 307.63,128.73 306.18,127.28 292.7,120.7 270.86,110.03 252.5,101.06 244.75,97.28 
							"/>
		</g>
	</g>
	<g id="XMLID_15_" class="st1">
		<g>
			<polygon class="st8" points="270.86,110.03 270.64,110.48 189.57,160.82 189.57,140.13 252.5,101.06 			"/>
			<polygon class="st8" points="307.63,128.73 306.18,130.17 189.75,202.46 189.57,202.46 189.57,184.62 189.75,184.62 292.7,120.7 
				306.18,127.28 			"/>
			<polygon class="st8" points="329.04,150.41 329.04,172.99 189.57,261.46 189.57,236.89 189.75,236.89 			"/>
			<path class="st8" d="M329.04,172.99v-22.58v-0.27l-21.41-21.41l-1.45-1.45l-13.48-6.58l-21.84-10.67l-18.36-8.97l-7.75-3.78
				l-55.18,33.99V17.36c0.67-0.01,1.33-0.01,2-0.01c98.62,0,178.57,79.95,178.57,178.57s-79.95,178.57-178.57,178.57
				c-0.67,0-1.33,0-2-0.01V261.46L329.04,172.99z"/>
		</g>
		<g>
			<path class="st9" d="M189.57,17.36c0.67-0.01,1.33-0.01,2-0.01c98.62,0,178.57,79.95,178.57,178.57s-79.95,178.57-178.57,178.57
				c-0.67,0-1.33,0-2-0.01c-97.71-1.07-176.58-80.61-176.58-178.56S91.86,18.43,189.57,17.36z"/>
			<polyline class="st10" points="189.57,17.35 189.57,17.36 189.57,131.27 189.57,140.13 189.57,160.82 189.57,173.65 
				189.57,184.62 189.57,202.46 189.57,236.89 189.57,261.46 189.57,374.48 189.57,374.49 			"/>
			<polyline class="st11" points="189.23,161.03 189.57,160.82 270.64,110.48 			"/>
			<line class="st11" x1="189.75" y1="184.62" x2="292.7" y2="120.7"/>
			<line class="st11" x1="189.75" y1="202.46" x2="306.18" y2="130.17"/>
			<line class="st11" x1="189.75" y1="236.89" x2="329.04" y2="150.41"/>
			<polygon class="st3" points="189.57,131.27 66.18,207.28 50.47,230.51 64.75,260.14 93.33,264.42 137.61,294.42 189.57,261.46 
				329.04,172.99 329.04,150.41 329.04,150.14 307.63,128.73 306.18,127.28 292.7,120.7 270.86,110.03 252.5,101.06 244.75,97.28 
							"/>
		</g>
	</g>
	<g id="XMLID_14_" class="st1">
		<g>
			<polygon class="st8" points="270.86,110.03 270.64,110.48 189.57,160.82 189.57,140.13 252.5,101.06 			"/>
			<polygon class="st8" points="307.63,128.73 306.18,130.17 189.75,202.46 189.57,202.46 189.57,184.62 189.75,184.62 292.7,120.7 
				306.18,127.28 			"/>
			<polygon class="st8" points="329.04,150.41 329.04,172.99 189.57,261.46 189.57,236.89 189.75,236.89 			"/>
			<path class="st8" d="M329.04,172.99v-22.58v-0.27l-21.41-21.41l-1.45-1.45l-13.48-6.58l-21.84-10.67l-18.36-8.97l-7.75-3.78
				l-55.18,33.99V17.36c0.67-0.01,1.33-0.01,2-0.01c98.62,0,178.57,79.95,178.57,178.57s-79.95,178.57-178.57,178.57
				c-0.67,0-1.33,0-2-0.01V261.46L329.04,172.99z"/>
		</g>
		<g>
			<path class="st9" d="M189.57,17.36c0.67-0.01,1.33-0.01,2-0.01c98.62,0,178.57,79.95,178.57,178.57s-79.95,178.57-178.57,178.57
				c-0.67,0-1.33,0-2-0.01c-97.71-1.07-176.58-80.61-176.58-178.56S91.86,18.43,189.57,17.36z"/>
			<polyline class="st10" points="189.57,17.35 189.57,17.36 189.57,131.27 189.57,140.13 189.57,160.82 189.57,173.65 
				189.57,184.62 189.57,202.46 189.57,236.89 189.57,261.46 189.57,374.48 189.57,374.49 			"/>
			<polyline class="st11" points="189.23,161.03 189.57,160.82 270.64,110.48 			"/>
			<line class="st11" x1="189.75" y1="184.62" x2="292.7" y2="120.7"/>
			<line class="st11" x1="189.75" y1="202.46" x2="306.18" y2="130.17"/>
			<line class="st11" x1="189.75" y1="236.89" x2="329.04" y2="150.41"/>
			<polygon class="st3" points="189.57,131.27 66.18,207.28 50.47,230.51 64.75,260.14 93.33,264.42 137.61,294.42 189.57,261.46 
				329.04,172.99 329.04,150.41 329.04,150.14 307.63,128.73 306.18,127.28 292.7,120.7 270.86,110.03 252.5,101.06 244.75,97.28 
							"/>
		</g>
	</g>
	<g id="XMLID_13_" class="st1">
		<g>
			<polygon class="st8" points="270.86,110.03 270.64,110.48 189.57,160.82 189.57,140.13 252.5,101.06 			"/>
			<polygon class="st8" points="307.63,128.73 306.18,130.17 189.75,202.46 189.57,202.46 189.57,184.62 189.75,184.62 292.7,120.7 
				306.18,127.28 			"/>
			<polygon class="st8" points="329.04,150.41 329.04,172.99 189.57,261.46 189.57,236.89 189.75,236.89 			"/>
			<path class="st8" d="M329.04,172.99v-22.58v-0.27l-21.41-21.41l-1.45-1.45l-13.48-6.58l-21.84-10.67l-18.36-8.97l-7.75-3.78
				l-55.18,33.99V17.36c0.67-0.01,1.33-0.01,2-0.01c98.62,0,178.57,79.95,178.57,178.57s-79.95,178.57-178.57,178.57
				c-0.67,0-1.33,0-2-0.01V261.46L329.04,172.99z"/>
		</g>
		<g>
			<path class="st9" d="M189.57,17.36c0.67-0.01,1.33-0.01,2-0.01c98.62,0,178.57,79.95,178.57,178.57s-79.95,178.57-178.57,178.57
				c-0.67,0-1.33,0-2-0.01c-97.71-1.07-176.58-80.61-176.58-178.56S91.86,18.43,189.57,17.36z"/>
			<polyline class="st10" points="189.57,17.35 189.57,17.36 189.57,131.27 189.57,140.13 189.57,160.82 189.57,173.65 
				189.57,184.62 189.57,202.46 189.57,236.89 189.57,261.46 189.57,374.48 189.57,374.49 			"/>
			<polyline class="st11" points="189.23,161.03 189.57,160.82 270.64,110.48 			"/>
			<line class="st11" x1="189.75" y1="184.62" x2="292.7" y2="120.7"/>
			<line class="st11" x1="189.75" y1="202.46" x2="306.18" y2="130.17"/>
			<line class="st11" x1="189.75" y1="236.89" x2="329.04" y2="150.41"/>
			<polygon class="st3" points="189.57,131.27 66.18,207.28 50.47,230.51 64.75,260.14 93.33,264.42 137.61,294.42 189.57,261.46 
				329.04,172.99 329.04,150.41 329.04,150.14 307.63,128.73 306.18,127.28 292.7,120.7 270.86,110.03 252.5,101.06 244.75,97.28 
							"/>
		</g>
	</g>
	<g id="XMLID_12_" class="st1">
		<g>
			<polygon class="st8" points="270.86,110.03 270.64,110.48 189.57,160.82 189.57,140.13 252.5,101.06 			"/>
			<polygon class="st8" points="307.63,128.73 306.18,130.17 189.75,202.46 189.57,202.46 189.57,184.62 189.75,184.62 292.7,120.7 
				306.18,127.28 			"/>
			<polygon class="st8" points="329.04,150.41 329.04,172.99 189.57,261.46 189.57,236.89 189.75,236.89 			"/>
			<path class="st8" d="M329.04,172.99v-22.58v-0.27l-21.41-21.41l-1.45-1.45l-13.48-6.58l-21.84-10.67l-18.36-8.97l-7.75-3.78
				l-55.18,33.99V17.36c0.67-0.01,1.33-0.01,2-0.01c98.62,0,178.57,79.95,178.57,178.57s-79.95,178.57-178.57,178.57
				c-0.67,0-1.33,0-2-0.01V261.46L329.04,172.99z"/>
		</g>
		<g>
			<path class="st9" d="M189.57,17.36c0.67-0.01,1.33-0.01,2-0.01c98.62,0,178.57,79.95,178.57,178.57s-79.95,178.57-178.57,178.57
				c-0.67,0-1.33,0-2-0.01c-97.71-1.07-176.58-80.61-176.58-178.56S91.86,18.43,189.57,17.36z"/>
			<polyline class="st10" points="189.57,17.35 189.57,17.36 189.57,131.27 189.57,140.13 189.57,160.82 189.57,173.65 
				189.57,184.62 189.57,202.46 189.57,236.89 189.57,261.46 189.57,374.48 189.57,374.49 			"/>
			<polyline class="st11" points="189.23,161.03 189.57,160.82 270.64,110.48 			"/>
			<line class="st11" x1="189.75" y1="184.62" x2="292.7" y2="120.7"/>
			<line class="st11" x1="189.75" y1="202.46" x2="306.18" y2="130.17"/>
			<line class="st11" x1="189.75" y1="236.89" x2="329.04" y2="150.41"/>
			<polygon class="st3" points="189.57,131.27 66.18,207.28 50.47,230.51 64.75,260.14 93.33,264.42 137.61,294.42 189.57,261.46 
				329.04,172.99 329.04,150.41 329.04,150.14 307.63,128.73 306.18,127.28 292.7,120.7 270.86,110.03 252.5,101.06 244.75,97.28 
							"/>
		</g>
	</g>
</g>
<g id="white" class="st0">
	<g id="XMLID_3_" class="st1">
		<g>
			<polygon class="st8" points="270.86,110.03 270.64,110.48 189.57,160.82 189.57,140.13 252.5,101.06 			"/>
			<polygon class="st8" points="307.63,128.73 306.18,130.17 189.75,202.46 189.57,202.46 189.57,184.62 189.75,184.62 292.7,120.7 
				306.18,127.28 			"/>
			<polygon class="st8" points="329.04,150.41 329.04,172.99 189.57,261.46 189.57,236.89 189.75,236.89 			"/>
			<path class="st8" d="M329.04,172.99v-22.58v-0.27l-21.41-21.41l-1.45-1.45l-13.48-6.58l-21.84-10.67l-18.36-8.97l-7.75-3.78
				l-55.18,33.99V17.36c0.67-0.01,1.33-0.01,2-0.01c98.62,0,178.57,79.95,178.57,178.57s-79.95,178.57-178.57,178.57
				c-0.67,0-1.33,0-2-0.01V261.46L329.04,172.99z"/>
		</g>
		<g>
			<path class="st9" d="M189.57,17.36c0.67-0.01,1.33-0.01,2-0.01c98.62,0,178.57,79.95,178.57,178.57s-79.95,178.57-178.57,178.57
				c-0.67,0-1.33,0-2-0.01c-97.71-1.07-176.58-80.61-176.58-178.56S91.86,18.43,189.57,17.36z"/>
			<polyline class="st10" points="189.57,17.35 189.57,17.36 189.57,131.27 189.57,140.13 189.57,160.82 189.57,173.65 
				189.57,184.62 189.57,202.46 189.57,236.89 189.57,261.46 189.57,374.48 189.57,374.49 			"/>
			<polyline class="st11" points="189.23,161.03 189.57,160.82 270.64,110.48 			"/>
			<line class="st11" x1="189.75" y1="184.62" x2="292.7" y2="120.7"/>
			<line class="st11" x1="189.75" y1="202.46" x2="306.18" y2="130.17"/>
			<line class="st11" x1="189.75" y1="236.89" x2="329.04" y2="150.41"/>
			<polygon class="st3" points="189.57,131.27 66.18,207.28 50.47,230.51 64.75,260.14 93.33,264.42 137.61,294.42 189.57,261.46 
				329.04,172.99 329.04,150.41 329.04,150.14 307.63,128.73 306.18,127.28 292.7,120.7 270.86,110.03 252.5,101.06 244.75,97.28 
							"/>
		</g>
	</g>
	<g id="XMLID_5_" class="st1">
		<g>
			<polygon class="st8" points="270.86,110.03 270.64,110.48 189.57,160.82 189.57,140.13 252.5,101.06 			"/>
			<polygon class="st8" points="307.63,128.73 306.18,130.17 189.75,202.46 189.57,202.46 189.57,184.62 189.75,184.62 292.7,120.7 
				306.18,127.28 			"/>
			<polygon class="st8" points="329.04,150.41 329.04,172.99 189.57,261.46 189.57,236.89 189.75,236.89 			"/>
			<path class="st8" d="M329.04,172.99v-22.58v-0.27l-21.41-21.41l-1.45-1.45l-13.48-6.58l-21.84-10.67l-18.36-8.97l-7.75-3.78
				l-55.18,33.99V17.36c0.67-0.01,1.33-0.01,2-0.01c98.62,0,178.57,79.95,178.57,178.57s-79.95,178.57-178.57,178.57
				c-0.67,0-1.33,0-2-0.01V261.46L329.04,172.99z"/>
		</g>
		<g>
			<path class="st9" d="M189.57,17.36c0.67-0.01,1.33-0.01,2-0.01c98.62,0,178.57,79.95,178.57,178.57s-79.95,178.57-178.57,178.57
				c-0.67,0-1.33,0-2-0.01c-97.71-1.07-176.58-80.61-176.58-178.56S91.86,18.43,189.57,17.36z"/>
			<polyline class="st10" points="189.57,17.35 189.57,17.36 189.57,131.27 189.57,140.13 189.57,160.82 189.57,173.65 
				189.57,184.62 189.57,202.46 189.57,236.89 189.57,261.46 189.57,374.48 189.57,374.49 			"/>
			<polyline class="st11" points="189.23,161.03 189.57,160.82 270.64,110.48 			"/>
			<line class="st11" x1="189.75" y1="184.62" x2="292.7" y2="120.7"/>
			<line class="st11" x1="189.75" y1="202.46" x2="306.18" y2="130.17"/>
			<line class="st11" x1="189.75" y1="236.89" x2="329.04" y2="150.41"/>
			<polygon class="st3" points="189.57,131.27 66.18,207.28 50.47,230.51 64.75,260.14 93.33,264.42 137.61,294.42 189.57,261.46 
				329.04,172.99 329.04,150.41 329.04,150.14 307.63,128.73 306.18,127.28 292.7,120.7 270.86,110.03 252.5,101.06 244.75,97.28 
							"/>
		</g>
	</g>
	<g id="XMLID_7_" class="st1">
		<g>
			<polygon class="st8" points="270.86,110.03 270.64,110.48 189.57,160.82 189.57,140.13 252.5,101.06 			"/>
			<polygon class="st8" points="307.63,128.73 306.18,130.17 189.75,202.46 189.57,202.46 189.57,184.62 189.75,184.62 292.7,120.7 
				306.18,127.28 			"/>
			<polygon class="st8" points="329.04,150.41 329.04,172.99 189.57,261.46 189.57,236.89 189.75,236.89 			"/>
			<path class="st8" d="M329.04,172.99v-22.58v-0.27l-21.41-21.41l-1.45-1.45l-13.48-6.58l-21.84-10.67l-18.36-8.97l-7.75-3.78
				l-55.18,33.99V17.36c0.67-0.01,1.33-0.01,2-0.01c98.62,0,178.57,79.95,178.57,178.57s-79.95,178.57-178.57,178.57
				c-0.67,0-1.33,0-2-0.01V261.46L329.04,172.99z"/>
		</g>
		<g>
			<path class="st9" d="M189.57,17.36c0.67-0.01,1.33-0.01,2-0.01c98.62,0,178.57,79.95,178.57,178.57s-79.95,178.57-178.57,178.57
				c-0.67,0-1.33,0-2-0.01c-97.71-1.07-176.58-80.61-176.58-178.56S91.86,18.43,189.57,17.36z"/>
			<polyline class="st10" points="189.57,17.35 189.57,17.36 189.57,131.27 189.57,140.13 189.57,160.82 189.57,173.65 
				189.57,184.62 189.57,202.46 189.57,236.89 189.57,261.46 189.57,374.48 189.57,374.49 			"/>
			<polyline class="st11" points="189.23,161.03 189.57,160.82 270.64,110.48 			"/>
			<line class="st11" x1="189.75" y1="184.62" x2="292.7" y2="120.7"/>
			<line class="st11" x1="189.75" y1="202.46" x2="306.18" y2="130.17"/>
			<line class="st11" x1="189.75" y1="236.89" x2="329.04" y2="150.41"/>
			<polygon class="st3" points="189.57,131.27 66.18,207.28 50.47,230.51 64.75,260.14 93.33,264.42 137.61,294.42 189.57,261.46 
				329.04,172.99 329.04,150.41 329.04,150.14 307.63,128.73 306.18,127.28 292.7,120.7 270.86,110.03 252.5,101.06 244.75,97.28 
							"/>
		</g>
	</g>
	<g id="XMLID_6_" class="st1">
		<g>
			<polygon class="st8" points="270.86,110.03 270.64,110.48 189.57,160.82 189.57,140.13 252.5,101.06 			"/>
			<polygon class="st8" points="307.63,128.73 306.18,130.17 189.75,202.46 189.57,202.46 189.57,184.62 189.75,184.62 292.7,120.7 
				306.18,127.28 			"/>
			<polygon class="st8" points="329.04,150.41 329.04,172.99 189.57,261.46 189.57,236.89 189.75,236.89 			"/>
			<path class="st8" d="M329.04,172.99v-22.58v-0.27l-21.41-21.41l-1.45-1.45l-13.48-6.58l-21.84-10.67l-18.36-8.97l-7.75-3.78
				l-55.18,33.99V17.36c0.67-0.01,1.33-0.01,2-0.01c98.62,0,178.57,79.95,178.57,178.57s-79.95,178.57-178.57,178.57
				c-0.67,0-1.33,0-2-0.01V261.46L329.04,172.99z"/>
		</g>
		<g>
			<path class="st9" d="M189.57,17.36c0.67-0.01,1.33-0.01,2-0.01c98.62,0,178.57,79.95,178.57,178.57s-79.95,178.57-178.57,178.57
				c-0.67,0-1.33,0-2-0.01c-97.71-1.07-176.58-80.61-176.58-178.56S91.86,18.43,189.57,17.36z"/>
			<polyline class="st10" points="189.57,17.35 189.57,17.36 189.57,131.27 189.57,140.13 189.57,160.82 189.57,173.65 
				189.57,184.62 189.57,202.46 189.57,236.89 189.57,261.46 189.57,374.48 189.57,374.49 			"/>
			<polyline class="st11" points="189.23,161.03 189.57,160.82 270.64,110.48 			"/>
			<line class="st11" x1="189.75" y1="184.62" x2="292.7" y2="120.7"/>
			<line class="st11" x1="189.75" y1="202.46" x2="306.18" y2="130.17"/>
			<line class="st11" x1="189.75" y1="236.89" x2="329.04" y2="150.41"/>
			<polygon class="st3" points="189.57,131.27 66.18,207.28 50.47,230.51 64.75,260.14 93.33,264.42 137.61,294.42 189.57,261.46 
				329.04,172.99 329.04,150.41 329.04,150.14 307.63,128.73 306.18,127.28 292.7,120.7 270.86,110.03 252.5,101.06 244.75,97.28 
							"/>
		</g>
	</g>
	<g id="XMLID_11_" class="st1">
		<g>
			<polygon class="st8" points="270.86,110.03 270.64,110.48 189.57,160.82 189.57,140.13 252.5,101.06 			"/>
			<polygon class="st8" points="307.63,128.73 306.18,130.17 189.75,202.46 189.57,202.46 189.57,184.62 189.75,184.62 292.7,120.7 
				306.18,127.28 			"/>
			<polygon class="st8" points="329.04,150.41 329.04,172.99 189.57,261.46 189.57,236.89 189.75,236.89 			"/>
			<path class="st8" d="M329.04,172.99v-22.58v-0.27l-21.41-21.41l-1.45-1.45l-13.48-6.58l-21.84-10.67l-18.36-8.97l-7.75-3.78
				l-55.18,33.99V17.36c0.67-0.01,1.33-0.01,2-0.01c98.62,0,178.57,79.95,178.57,178.57s-79.95,178.57-178.57,178.57
				c-0.67,0-1.33,0-2-0.01V261.46L329.04,172.99z"/>
		</g>
		<g>
			<path class="st9" d="M189.57,17.36c0.67-0.01,1.33-0.01,2-0.01c98.62,0,178.57,79.95,178.57,178.57s-79.95,178.57-178.57,178.57
				c-0.67,0-1.33,0-2-0.01c-97.71-1.07-176.58-80.61-176.58-178.56S91.86,18.43,189.57,17.36z"/>
			<polyline class="st10" points="189.57,17.35 189.57,17.36 189.57,131.27 189.57,140.13 189.57,160.82 189.57,173.65 
				189.57,184.62 189.57,202.46 189.57,236.89 189.57,261.46 189.57,374.48 189.57,374.49 			"/>
			<polyline class="st11" points="189.23,161.03 189.57,160.82 270.64,110.48 			"/>
			<line class="st11" x1="189.75" y1="184.62" x2="292.7" y2="120.7"/>
			<line class="st11" x1="189.75" y1="202.46" x2="306.18" y2="130.17"/>
			<line class="st11" x1="189.75" y1="236.89" x2="329.04" y2="150.41"/>
			<polygon class="st3" points="189.57,131.27 66.18,207.28 50.47,230.51 64.75,260.14 93.33,264.42 137.61,294.42 189.57,261.46 
				329.04,172.99 329.04,150.41 329.04,150.14 307.63,128.73 306.18,127.28 292.7,120.7 270.86,110.03 252.5,101.06 244.75,97.28 
							"/>
		</g>
	</g>
	<g id="XMLID_10_" class="st1">
		<g>
			<polygon class="st8" points="270.86,110.03 270.64,110.48 189.57,160.82 189.57,140.13 252.5,101.06 			"/>
			<polygon class="st8" points="307.63,128.73 306.18,130.17 189.75,202.46 189.57,202.46 189.57,184.62 189.75,184.62 292.7,120.7 
				306.18,127.28 			"/>
			<polygon class="st8" points="329.04,150.41 329.04,172.99 189.57,261.46 189.57,236.89 189.75,236.89 			"/>
			<path class="st8" d="M329.04,172.99v-22.58v-0.27l-21.41-21.41l-1.45-1.45l-13.48-6.58l-21.84-10.67l-18.36-8.97l-7.75-3.78
				l-55.18,33.99V17.36c0.67-0.01,1.33-0.01,2-0.01c98.62,0,178.57,79.95,178.57,178.57s-79.95,178.57-178.57,178.57
				c-0.67,0-1.33,0-2-0.01V261.46L329.04,172.99z"/>
		</g>
		<g>
			<path class="st9" d="M189.57,17.36c0.67-0.01,1.33-0.01,2-0.01c98.62,0,178.57,79.95,178.57,178.57s-79.95,178.57-178.57,178.57
				c-0.67,0-1.33,0-2-0.01c-97.71-1.07-176.58-80.61-176.58-178.56S91.86,18.43,189.57,17.36z"/>
			<polyline class="st10" points="189.57,17.35 189.57,17.36 189.57,131.27 189.57,140.13 189.57,160.82 189.57,173.65 
				189.57,184.62 189.57,202.46 189.57,236.89 189.57,261.46 189.57,374.48 189.57,374.49 			"/>
			<polyline class="st11" points="189.23,161.03 189.57,160.82 270.64,110.48 			"/>
			<line class="st11" x1="189.75" y1="184.62" x2="292.7" y2="120.7"/>
			<line class="st11" x1="189.75" y1="202.46" x2="306.18" y2="130.17"/>
			<line class="st11" x1="189.75" y1="236.89" x2="329.04" y2="150.41"/>
			<polygon class="st3" points="189.57,131.27 66.18,207.28 50.47,230.51 64.75,260.14 93.33,264.42 137.61,294.42 189.57,261.46 
				329.04,172.99 329.04,150.41 329.04,150.14 307.63,128.73 306.18,127.28 292.7,120.7 270.86,110.03 252.5,101.06 244.75,97.28 
							"/>
		</g>
	</g>
	<g id="XMLID_9_" class="st1">
		<g>
			<polygon class="st8" points="270.86,110.03 270.64,110.48 189.57,160.82 189.57,140.13 252.5,101.06 			"/>
			<polygon class="st8" points="307.63,128.73 306.18,130.17 189.75,202.46 189.57,202.46 189.57,184.62 189.75,184.62 292.7,120.7 
				306.18,127.28 			"/>
			<polygon class="st8" points="329.04,150.41 329.04,172.99 189.57,261.46 189.57,236.89 189.75,236.89 			"/>
			<path class="st8" d="M329.04,172.99v-22.58v-0.27l-21.41-21.41l-1.45-1.45l-13.48-6.58l-21.84-10.67l-18.36-8.97l-7.75-3.78
				l-55.18,33.99V17.36c0.67-0.01,1.33-0.01,2-0.01c98.62,0,178.57,79.95,178.57,178.57s-79.95,178.57-178.57,178.57
				c-0.67,0-1.33,0-2-0.01V261.46L329.04,172.99z"/>
		</g>
		<g>
			<path class="st9" d="M189.57,17.36c0.67-0.01,1.33-0.01,2-0.01c98.62,0,178.57,79.95,178.57,178.57s-79.95,178.57-178.57,178.57
				c-0.67,0-1.33,0-2-0.01c-97.71-1.07-176.58-80.61-176.58-178.56S91.86,18.43,189.57,17.36z"/>
			<polyline class="st10" points="189.57,17.35 189.57,17.36 189.57,131.27 189.57,140.13 189.57,160.82 189.57,173.65 
				189.57,184.62 189.57,202.46 189.57,236.89 189.57,261.46 189.57,374.48 189.57,374.49 			"/>
			<polyline class="st11" points="189.23,161.03 189.57,160.82 270.64,110.48 			"/>
			<line class="st11" x1="189.75" y1="184.62" x2="292.7" y2="120.7"/>
			<line class="st11" x1="189.75" y1="202.46" x2="306.18" y2="130.17"/>
			<line class="st11" x1="189.75" y1="236.89" x2="329.04" y2="150.41"/>
			<polygon class="st3" points="189.57,131.27 66.18,207.28 50.47,230.51 64.75,260.14 93.33,264.42 137.61,294.42 189.57,261.46 
				329.04,172.99 329.04,150.41 329.04,150.14 307.63,128.73 306.18,127.28 292.7,120.7 270.86,110.03 252.5,101.06 244.75,97.28 
							"/>
		</g>
	</g>
	<g id="XMLID_8_" class="st1">
		<g>
			<polygon class="st8" points="270.86,110.03 270.64,110.48 189.57,160.82 189.57,140.13 252.5,101.06 			"/>
			<polygon class="st8" points="307.63,128.73 306.18,130.17 189.75,202.46 189.57,202.46 189.57,184.62 189.75,184.62 292.7,120.7 
				306.18,127.28 			"/>
			<polygon class="st8" points="329.04,150.41 329.04,172.99 189.57,261.46 189.57,236.89 189.75,236.89 			"/>
			<path class="st8" d="M329.04,172.99v-22.58v-0.27l-21.41-21.41l-1.45-1.45l-13.48-6.58l-21.84-10.67l-18.36-8.97l-7.75-3.78
				l-55.18,33.99V17.36c0.67-0.01,1.33-0.01,2-0.01c98.62,0,178.57,79.95,178.57,178.57s-79.95,178.57-178.57,178.57
				c-0.67,0-1.33,0-2-0.01V261.46L329.04,172.99z"/>
		</g>
		<g>
			<path class="st9" d="M189.57,17.36c0.67-0.01,1.33-0.01,2-0.01c98.62,0,178.57,79.95,178.57,178.57s-79.95,178.57-178.57,178.57
				c-0.67,0-1.33,0-2-0.01c-97.71-1.07-176.58-80.61-176.58-178.56S91.86,18.43,189.57,17.36z"/>
			<polyline class="st10" points="189.57,17.35 189.57,17.36 189.57,131.27 189.57,140.13 189.57,160.82 189.57,173.65 
				189.57,184.62 189.57,202.46 189.57,236.89 189.57,261.46 189.57,374.48 189.57,374.49 			"/>
			<polyline class="st11" points="189.23,161.03 189.57,160.82 270.64,110.48 			"/>
			<line class="st11" x1="189.75" y1="184.62" x2="292.7" y2="120.7"/>
			<line class="st11" x1="189.75" y1="202.46" x2="306.18" y2="130.17"/>
			<line class="st11" x1="189.75" y1="236.89" x2="329.04" y2="150.41"/>
			<polygon class="st3" points="189.57,131.27 66.18,207.28 50.47,230.51 64.75,260.14 93.33,264.42 137.61,294.42 189.57,261.46 
				329.04,172.99 329.04,150.41 329.04,150.14 307.63,128.73 306.18,127.28 292.7,120.7 270.86,110.03 252.5,101.06 244.75,97.28 
							"/>
		</g>
	</g>
	<circle class="st12" cx="191.56" cy="195.85" r="180.15"/>
</g>
<g id="Website_green">
	<g id="XMLID_4_">
		<g>
			<path class="st13" d="M321.22,171.68V150.3v-0.26l-20.27-20.27l-1.37-1.37l-12.76-6.23l-20.68-10.1l-17.39-8.49l-7.34-3.58
				l-52.25,32.19V24.32c0.63-0.01,1.26-0.01,1.89-0.01c93.39,0,169.09,75.71,169.09,169.09s-75.71,169.09-169.09,169.09
				c-0.63,0-1.26,0-1.89-0.01V255.46L321.22,171.68z"/>
			<polygon class="st13" points="321.22,150.3 321.22,171.68 189.15,255.46 189.15,232.19 189.32,232.19 			"/>
			<polygon class="st13" points="300.95,129.77 299.57,131.14 189.32,199.59 189.15,199.59 189.15,182.7 189.32,182.7 
				286.81,122.17 299.57,128.4 			"/>
			<polygon class="st13" points="266.13,112.07 265.92,112.49 189.15,160.16 189.15,140.57 248.74,103.57 			"/>
		</g>
		<g>
			<path class="st14" d="M189.15,24.32c0.63-0.01,1.26-0.01,1.89-0.01c93.39,0,169.09,75.71,169.09,169.09
				s-75.71,169.09-169.09,169.09c-0.63,0-1.26,0-1.89-0.01C96.63,361.47,21.95,286.15,21.95,193.4S96.63,25.33,189.15,24.32z"/>
			<polyline class="st15" points="189.15,24.31 189.15,24.32 189.15,132.18 189.15,140.57 189.15,160.16 189.15,172.31 
				189.15,182.7 189.15,199.59 189.15,232.19 189.15,255.46 189.15,362.48 189.15,362.49 			"/>
			<polyline class="st16" points="188.83,160.36 189.15,160.16 265.92,112.49 			"/>
			<polygon class="st17" points="189.15,132.18 72.31,204.15 57.44,226.15 70.96,254.21 98.02,258.26 139.95,286.67 189.15,255.46 
				321.22,171.68 321.22,150.3 321.22,150.05 300.95,129.77 299.57,128.4 286.81,122.17 266.13,112.07 248.74,103.57 241.41,99.99 
							"/>
		</g>
	</g>
</g>
</svg>
