<?xml version="1.0" encoding="UTF-8" standalone="no"?>
<!DOCTYPE svg PUBLIC "-//W3C//DTD SVG 1.1//EN" "http://www.w3.org/Graphics/SVG/1.1/DTD/svg11.dtd">
<svg version="1.1" xmlns="http://www.w3.org/2000/svg" xmlns:xlink="http://www.w3.org/1999/xlink" preserveAspectRatio="xMidYMid meet" viewBox="0 0 1200 800" width="1200" height="800"><defs><path d="M865.72 306.42L824.32 265.03L821.53 262.23L795.47 249.5L753.23 228.88L717.72 211.54L702.73 204.23C638.7 243.67 603.13 265.59 596.02 269.97C596.02 137.79 596.02 64.35 596.02 49.67C597.3 49.65 598.59 49.65 599.88 49.65C790.61 49.65 945.21 204.27 945.21 394.98C945.21 585.68 790.59 740.3 599.88 740.3C598.59 740.3 597.3 740.3 596.02 740.28C596.02 725.71 596.02 652.86 596.02 521.72C614 510.31 703.9 453.28 865.72 350.62L865.72 306.95L865.72 306.42Z" id="iMCRSrZLE"></path><path d="M865.72 306.42L824.32 265.03L821.53 262.23L795.47 249.5L753.23 228.88L717.72 211.54L702.73 204.23C638.7 243.67 603.13 265.59 596.02 269.97C596.02 137.79 596.02 64.35 596.02 49.67C597.3 49.65 598.59 49.65 599.88 49.65C790.61 49.65 945.21 204.27 945.21 394.98C945.21 585.68 790.59 740.3 599.88 740.3C598.59 740.3 597.3 740.3 596.02 740.28C596.02 725.71 596.02 652.86 596.02 521.72C614 510.31 703.9 453.28 865.72 350.62L865.72 306.95L865.72 306.42Z" id="epGiHL79"></path><path d="M596 521.72L596 474.2L596.34 474.2L865.72 306.95L865.72 350.62L596 521.72Z" id="c1iLSaUyBk"></path><path d="M596 521.72L596 474.2L596.34 474.2L865.72 306.95L865.72 350.62L596 521.72Z" id="a4tKEGLZQj"></path><path d="M596.34 407.62L596 407.62L596 373.12L596.34 373.12L795.45 249.5L821.51 262.23L824.32 265.03L821.51 267.82L596.34 407.62Z" id="b8hhe2oQg"></path><path d="M596.34 407.62L596 407.62L596 373.12L596.34 373.12L795.45 249.5L821.51 262.23L824.32 265.03L821.51 267.82L596.34 407.62Z" id="a1nBfyz59m"></path><path d="M596 327.09L596 287.08L717.7 211.52L753.21 228.88L752.78 229.74L596 327.09Z" id="a1ltt0MS3y"></path><path d="M596 327.09L596 287.08L717.7 211.52L753.21 228.88L752.78 229.74L596 327.09Z" id="cah3mSbFc"></path><path d="M945.19 394.98C945.19 585.68 790.56 740.3 599.86 740.3C598.57 740.3 597.28 740.3 596 740.28C407.05 738.22 254.53 584.4 254.53 394.98C254.53 205.55 407.05 51.73 596 49.67C597.28 49.65 598.57 49.65 599.86 49.65C790.59 49.65 945.19 204.27 945.19 394.98Z" id="b1k26TfxJM"></path><path d="M945.19 394.98C945.19 585.68 790.56 740.3 599.86 740.3C598.57 740.3 597.28 740.3 596 740.28C407.05 738.22 254.53 584.4 254.53 394.98C254.53 205.55 407.05 51.73 596 49.67C597.28 49.65 598.57 49.65 599.86 49.65C790.59 49.65 945.19 204.27 945.19 394.98Z" id="dDLorpmPc"></path><path d="M596 49.65L596 49.67L596 269.95L596 287.08L596 327.09L596 351.9L596 373.12L596 407.62L596 474.2L596 521.72L596 740.28L596 740.3" id="cgjRxNuZv"></path><path d="M596 49.65L596 49.67L596 269.95L596 287.08L596 327.09L596 351.9L596 373.12L596 407.62L596 474.2L596 521.72L596 740.28L596 740.3" id="elbjrES6J"></path><path d="M595.34 327.5L596 327.09L752.78 229.74" id="b5GcBsZ3br"></path><path d="M595.34 327.5L596 327.09L752.78 229.74" id="fd8Jo9CoV"></path><path d="M327.01 461.86L354.62 519.17L409.88 527.44L495.52 585.46L596 521.72L865.72 350.62L865.72 306.95L865.72 306.44L824.32 265.03L821.51 262.23L795.45 249.5L753.21 228.88L717.7 211.52L702.73 204.21L596 269.95L357.38 416.93L327.01 461.86Z" id="aj07AoLp6"></path><path d="M327.01 461.86L354.62 519.17L409.88 527.44L495.52 585.46L596 521.72L865.72 350.62L865.72 306.95L865.72 306.44L824.32 265.03L821.51 262.23L795.45 249.5L753.21 228.88L717.7 211.52L702.73 204.21L596 269.95L357.38 416.93L327.01 461.86Z" id="aB1bdPQhR"></path></defs><g><g><g><use xlink:href="#iMCRSrZLE" opacity="1" fill="#ffcc99" fill-opacity="1"></use><g><use xlink:href="#iMCRSrZLE" opacity="1" fill-opacity="0" stroke="#000000" stroke-width="1" stroke-opacity="0"></use></g></g><g><use xlink:href="#epGiHL79" opacity="1" fill="#000000" fill-opacity="0"></use><g><use xlink:href="#epGiHL79" opacity="1" fill-opacity="0" stroke="#000000" stroke-width="1" stroke-opacity="0"></use></g></g><g><use xlink:href="#c1iLSaUyBk" opacity="1" fill="#ffcc99" fill-opacity="1"></use><g><use xlink:href="#c1iLSaUyBk" opacity="1" fill-opacity="0" stroke="#000000" stroke-width="1" stroke-opacity="0"></use></g></g><g><use xlink:href="#a4tKEGLZQj" opacity="1" fill="#000000" fill-opacity="0"></use><g><use xlink:href="#a4tKEGLZQj" opacity="1" fill-opacity="0" stroke="#000000" stroke-width="1" stroke-opacity="0"></use></g></g><g><use xlink:href="#b8hhe2oQg" opacity="1" fill="#ffcc99" fill-opacity="1"></use><g><use xlink:href="#b8hhe2oQg" opacity="1" fill-opacity="0" stroke="#000000" stroke-width="1" stroke-opacity="0"></use></g></g><g><use xlink:href="#a1nBfyz59m" opacity="1" fill="#000000" fill-opacity="0"></use><g><use xlink:href="#a1nBfyz59m" opacity="1" fill-opacity="0" stroke="#000000" stroke-width="1" stroke-opacity="0"></use></g></g><g><use xlink:href="#a1ltt0MS3y" opacity="1" fill="#ffcc99" fill-opacity="1"></use><g><use xlink:href="#a1ltt0MS3y" opacity="1" fill-opacity="0" stroke="#000000" stroke-width="1" stroke-opacity="0"></use></g></g><g><use xlink:href="#cah3mSbFc" opacity="1" fill="#000000" fill-opacity="0"></use><g><use xlink:href="#cah3mSbFc" opacity="1" fill-opacity="0" stroke="#000000" stroke-width="1" stroke-opacity="0"></use></g></g><g><use xlink:href="#b1k26TfxJM" opacity="1" fill="#000000" fill-opacity="0"></use><g><use xlink:href="#b1k26TfxJM" opacity="1" fill-opacity="0" stroke="#000000" stroke-width="1" stroke-opacity="0"></use></g></g><g><use xlink:href="#dDLorpmPc" opacity="1" fill="#000000" fill-opacity="0"></use><g><use xlink:href="#dDLorpmPc" opacity="1" fill-opacity="0" stroke="#ffcc99" stroke-width="29" stroke-opacity="1"></use></g></g><g><use xlink:href="#cgjRxNuZv" opacity="1" fill="#000000" fill-opacity="0"></use><g><use xlink:href="#cgjRxNuZv" opacity="1" fill-opacity="0" stroke="#000000" stroke-width="1" stroke-opacity="0"></use></g></g><g><use xlink:href="#elbjrES6J" opacity="1" fill="#000000" fill-opacity="0"></use><g><use xlink:href="#elbjrES6J" opacity="1" fill-opacity="0" stroke="#ffcc99" stroke-width="21" stroke-opacity="1"></use></g></g><g><use xlink:href="#b5GcBsZ3br" opacity="1" fill="#000000" fill-opacity="0"></use><g><use xlink:href="#b5GcBsZ3br" opacity="1" fill-opacity="0" stroke="#000000" stroke-width="1" stroke-opacity="0"></use></g></g><g><use xlink:href="#fd8Jo9CoV" opacity="1" fill="#000000" fill-opacity="0"></use><g><use xlink:href="#fd8Jo9CoV" opacity="1" fill-opacity="0" stroke="#ffcc99" stroke-width="2" stroke-opacity="1"></use></g></g><g><use xlink:href="#aj07AoLp6" opacity="1" fill="#000000" fill-opacity="0"></use><g><use xlink:href="#aj07AoLp6" opacity="1" fill-opacity="0" stroke="#000000" stroke-width="1" stroke-opacity="0"></use></g></g><g><use xlink:href="#aB1bdPQhR" opacity="1" fill="#000000" fill-opacity="0"></use><g><use xlink:href="#aB1bdPQhR" opacity="1" fill-opacity="0" stroke="#c6c6c6" stroke-width="10" stroke-opacity="1"></use></g></g></g></g></svg>